<svg width="1297" height="240" viewBox="0 0 1297 240" fill="none" xmlns="http://www.w3.org/2000/svg">
<g clip-path="url(#clip0_483_66)">
<path d="M95.4014 0C42.7112 0 -7.62939e-06 42.7112 -7.62939e-06 95.4014C-7.62939e-06 148.092 42.7112 190.803 95.4014 190.803C148.092 190.803 190.803 148.092 190.803 95.4014C190.803 42.7112 148.089 0 95.4014 0ZM157.318 98.6593L113.295 102.812L141.485 136.878L136.878 141.485L102.812 113.295L98.6593 157.318H92.1435L88.2614 116.181L38.8729 157.052L33.7506 151.93L74.6221 102.541L33.4851 98.6593V92.1435L77.5076 87.9904L49.3173 53.9249L53.9249 49.3173L87.9904 77.5076L92.1435 33.4851H98.6593L102.541 74.6221L151.93 33.7506L157.052 38.8729L116.181 88.2614L157.318 92.1435V98.6593Z" fill="url(#paint0_linear_483_66)"/>
</g>
<g clip-path="url(#clip1_483_66)">
<path d="M804.857 28.3078V48.94C813.504 40.152 823.336 32.1579 835.822 29.6455C906.964 15.3759 923.8 136.885 860.827 163.206C845.578 169.579 827.295 169.416 812.351 162.249C809.773 161.02 807.5 159.127 804.857 158.061V189.276C804.857 189.961 806.337 193.551 806.891 194.301C809.306 197.586 816.016 199.174 819.878 199.794C821.291 200.022 822.966 199.38 823.891 200.674V210.985L823.075 211.801H764.365L763.549 210.985V200.403C771.174 199.032 781.343 198.956 782.518 189.211L782.202 54.4542C779.635 45.0572 769.031 44.1218 760.863 42.9254L760.83 34.2679L804.857 28.2969V28.3078ZM836.203 49.6905C825.12 49.6905 813.689 53.3231 805.118 60.3383L804.857 119.244C808.164 159.008 858.956 168.176 873.041 128.184C883.493 98.4922 875.705 49.6796 836.192 49.6905H836.203Z" fill="black"/>
<path d="M924.443 64.4058C929.86 21.3685 1015.53 13.0155 1023.32 62.8287C1026.95 86.0822 1021.84 115.415 1023.9 139.343C1024.97 151.807 1036.33 152.329 1045.1 146.652L1048.18 153.439C1036.25 175.844 1003.44 171.385 1001.9 144.477C987.874 160.193 967.894 171.7 946.076 166.566C934.743 163.902 924.411 154.722 921.572 143.269C910.163 97.2738 972.875 94.2067 1001.65 82.2211C1001.46 72.998 1002.87 63.8729 997.934 55.596C989.592 41.6201 967.84 40.1083 955.963 50.2667C948.763 56.4226 946.794 65.8088 947.273 74.9775H924.443C924.748 71.6276 924.03 67.6578 924.443 64.3949V64.4058ZM1001.62 94.0001C991.082 97.2629 980.173 99.9711 969.819 103.767C956.865 108.498 944.369 115.307 945.619 131.219C946.413 141.366 954.842 146.478 964.381 147.228C977.9 148.294 991.691 142.802 1001.63 133.905V94.0001H1001.62Z" fill="black"/>
<path d="M1158.72 42.4249V72.824H1146.22C1143.44 52.9313 1129.93 39.4666 1108.99 41.3481C1089.58 43.0883 1082.38 65.2106 1098.74 76.5328C1121.92 92.5753 1172.63 89.6931 1165.73 133.307C1159.05 175.561 1091.07 175.92 1066.42 150.078L1065.77 120.603H1077.72C1081.65 135.754 1092.5 150.763 1108.6 154.102C1126.03 157.724 1148.72 149.969 1142.59 128.304C1136.27 105.986 1087.45 108.89 1073.7 85.8211C1066.09 73.0742 1067.95 55.8136 1077.45 44.6001C1093.69 25.4253 1124.9 25.099 1146.42 34.9094C1150.93 36.965 1154.58 39.8146 1158.73 42.4358L1158.72 42.4249Z" fill="black"/>
<path d="M1279.93 72.8238H1268.24C1266.85 69.4739 1266.24 65.6346 1264.8 62.1433C1258.69 47.2537 1246.36 39.8579 1230.19 41.3479C1211.24 43.099 1203.94 64.1445 1219.4 75.9888C1239.41 91.3025 1284.97 88.4095 1287.52 123.594C1289.97 157.213 1255.88 170.449 1227.47 167.284C1213.84 165.761 1197.04 160.225 1187.77 149.947L1186.98 120.603H1198.94C1203.05 135.612 1213.75 150.741 1229.81 154.102C1240.98 156.44 1257.33 155.059 1262.64 143.237C1275.89 113.784 1228.75 107.932 1211.06 99.525C1181.48 85.462 1184.51 47.2972 1212.87 33.8107C1233.49 24.0003 1262.42 28.2094 1279.92 42.6857V72.8129L1279.93 72.8238Z" fill="black"/>
<path d="M565.686 55.4546C573.517 44.7741 583.719 35.3662 596.532 31.1571C619.328 23.6851 643.702 32.6471 649.401 57.0752C653.904 51.9198 657.993 46.3294 663.268 41.8919C691.938 17.7575 734.595 26.2084 736.922 67.6469C738.303 92.1293 735.65 117.754 737.14 142.345C739.685 150.078 748.233 151.96 755.379 153.178V164.576H696.136V153.178C703.63 152.482 713.092 151.437 714.484 142.465C713.19 119.82 716.66 94.3481 714.604 72.03C713.571 60.7622 704.598 52.257 693.635 50.6255C677.222 48.2001 660.332 57.9126 651.032 70.9424C652.185 93.0973 649.466 116.851 651 138.821C651.098 140.289 651.435 143.215 651.805 144.542C653.73 151.557 663.997 152.525 670.055 153.189V164.587H610.268V153.189C615.228 152.743 623.7 152.068 626.811 147.718C628.616 145.195 629.117 140.822 629.313 137.733C630.465 119.896 630.411 93.6737 629.28 75.8258C626.887 37.933 580.543 47.4062 565.697 71.4862C566.839 93.4671 564.142 117.025 565.665 138.821C565.763 140.289 566.1 143.215 566.47 144.542C568.395 151.557 578.662 152.525 584.72 153.189V164.587H524.933V153.189C530.067 152.71 538.637 152.079 541.693 147.402C543.51 144.629 543.412 141.442 543.977 138.288V53.6165L526.63 48.3307V41.1415L527.478 40.3584L560.781 31.8096L565.697 31.5704V55.4546H565.686Z" fill="black"/>
<path d="M447.624 28.4714C529.87 24.8605 532.894 157.366 455.009 167.231C365.062 178.607 361.125 32.2672 447.624 28.4714ZM445.438 43.6546C405.631 44.2963 404.097 107.922 418.834 133.449C432.865 157.746 465.82 160.172 479.361 133.993C493.924 105.823 487.279 42.9803 445.438 43.6437V43.6546Z" fill="black"/>
<path d="M361.856 75.5441H347.727C345.922 60.2194 335.252 46.7655 319.601 44.1879C269.288 35.9219 259.804 117.026 296.12 139.29C316.219 151.613 341.212 146.196 356.689 129.294C357.875 128 361.616 122.334 362.389 121.92C363.531 121.3 367.054 124.139 367.74 125.303C359.495 148.861 341.832 166.328 315.914 167.84C240.542 172.234 230.982 57.0762 293.216 32.7787C315.262 24.1756 344.78 28.6022 361.856 45.406V75.5332V75.5441Z" fill="black"/>
</g>
<defs>
<linearGradient id="paint0_linear_483_66" x1="18.4837" y1="209.265" x2="233.826" y2="129.566" gradientUnits="userSpaceOnUse">
<stop stop-color="#3C39EE"/>
<stop offset="0.359779" stop-color="#468AFC"/>
<stop offset="0.745188" stop-color="#0DA7CD"/>
<stop offset="1" stop-color="#49C5F4"/>
</linearGradient>
<clipPath id="clip0_483_66">
<rect width="190.8" height="190.8" fill="white"/>
</clipPath>
<clipPath id="clip1_483_66">
<rect width="1035.4" height="183.504" fill="white" transform="translate(252.255 28.3074)"/>
</clipPath>
</defs>
</svg>
