<svg width="597" height="468" viewBox="0 0 597 468" fill="none" xmlns="http://www.w3.org/2000/svg">
<g clip-path="url(#clip0_132_4113)">
<path d="M298.117 26.3184C227.621 26.3184 170.477 83.4628 170.477 153.958C170.477 224.454 227.621 281.598 298.117 281.598C368.612 281.598 425.757 224.454 425.757 153.958C425.757 83.4628 368.609 26.3184 298.117 26.3184ZM380.956 158.317L322.057 163.874L359.774 209.451L353.609 215.615L308.032 177.899L302.475 236.798H293.758L288.564 181.76L222.486 236.443L215.632 229.589L270.315 163.511L215.277 158.317V149.6L274.176 144.043L236.459 98.4659L242.624 92.3013L288.201 130.018L293.758 71.1189H302.475L307.669 126.157L373.748 71.4742L380.601 78.3274L325.918 144.406L380.956 149.6V158.317Z" fill="url(#paint0_linear_132_4113)"/>
</g>
<g clip-path="url(#clip1_132_4113)">
<path d="M316.951 353.072V364.128C321.584 359.419 326.852 355.135 333.542 353.789C371.662 346.143 380.684 411.252 346.941 425.355C338.77 428.77 328.973 428.683 320.966 424.842C319.585 424.184 318.367 423.17 316.951 422.599V439.325C316.951 439.692 317.743 441.615 318.04 442.017C319.334 443.777 322.93 444.628 324.999 444.96C325.756 445.082 326.654 444.739 327.149 445.432V450.957L326.712 451.394H295.253L294.816 450.957V445.286C298.902 444.552 304.351 444.511 304.98 439.29L304.811 367.082C303.436 362.047 297.754 361.546 293.377 360.905L293.359 356.266L316.951 353.066V353.072ZM333.746 364.53C327.808 364.53 321.683 366.476 317.09 370.235L316.951 401.799C318.722 423.106 345.938 428.019 353.485 406.589C359.086 390.679 354.913 364.524 333.741 364.53H333.746Z" fill="white"/>
<path d="M381.023 372.415C383.925 349.354 429.832 344.878 434.004 371.57C435.951 384.03 433.212 399.748 434.313 412.569C434.89 419.248 440.974 419.527 445.677 416.485L447.327 420.122C440.934 432.127 423.351 429.738 422.529 415.32C415.011 423.741 404.305 429.907 392.615 427.156C386.542 425.728 381.006 420.81 379.485 414.673C373.371 390.027 406.975 388.383 422.395 381.961C422.29 377.019 423.048 372.129 420.402 367.694C415.932 360.206 404.276 359.396 397.912 364.839C394.054 368.137 392.999 373.167 393.256 378.08H381.023C381.186 376.285 380.802 374.158 381.023 372.409V372.415ZM422.378 388.273C416.73 390.021 410.885 391.472 405.337 393.506C398.396 396.041 391.7 399.689 392.37 408.216C392.795 413.653 397.312 416.392 402.423 416.794C409.667 417.365 417.057 414.422 422.384 409.655V388.273H422.378Z" fill="white"/>
<path d="M506.555 360.637V376.926H499.859C498.367 366.267 491.129 359.052 479.91 360.06C469.507 360.993 465.649 372.846 474.42 378.913C486.839 387.509 514.009 385.965 510.314 409.335C506.736 431.976 470.306 432.168 457.1 418.321L456.75 402.528H463.155C465.259 410.646 471.075 418.688 479.7 420.478C489.042 422.418 501.199 418.263 497.912 406.654C494.526 394.695 468.371 396.251 460.999 383.89C456.925 377.06 457.921 367.811 463.009 361.803C471.71 351.528 488.436 351.353 499.964 356.61C502.382 357.711 504.34 359.238 506.561 360.643L506.555 360.637Z" fill="white"/>
<path d="M571.508 376.926H565.243C564.497 375.131 564.171 373.073 563.401 371.203C560.126 363.224 553.517 359.261 544.857 360.06C534.699 360.998 530.789 372.275 539.076 378.622C549.793 386.827 574.206 385.277 575.576 404.13C576.887 422.144 558.623 429.237 543.4 427.541C536.092 426.725 527.094 423.758 522.123 418.251L521.703 402.527H528.108C530.311 410.57 536.045 418.676 544.653 420.477C550.638 421.73 559.398 420.99 562.242 414.655C569.34 398.873 544.082 395.738 534.606 391.233C518.754 383.698 520.38 363.248 535.573 356.021C546.623 350.764 562.125 353.02 571.502 360.777V376.92L571.508 376.926Z" fill="white"/>
<path d="M188.798 367.618C192.994 361.895 198.461 356.854 205.326 354.599C217.541 350.595 230.601 355.397 233.655 368.487C236.068 365.724 238.259 362.729 241.085 360.351C256.448 347.419 279.305 351.947 280.552 374.151C281.292 387.27 279.87 401 280.668 414.177C282.032 418.321 286.613 419.329 290.442 419.982V426.089H258.697V419.982C262.713 419.609 267.783 419.049 268.529 414.241C267.835 402.108 269.694 388.459 268.593 376.5C268.039 370.462 263.231 365.905 257.357 365.031C248.563 363.731 239.512 368.935 234.529 375.917C235.147 387.788 233.69 400.517 234.512 412.289C234.564 413.076 234.745 414.643 234.943 415.354C235.974 419.113 241.476 419.632 244.722 419.987V426.095H212.686V419.987C215.344 419.748 219.884 419.387 221.551 417.056C222.518 415.704 222.786 413.361 222.891 411.706C223.509 402.148 223.48 388.097 222.873 378.534C221.591 358.23 196.759 363.306 188.804 376.209C189.416 387.987 187.97 400.61 188.786 412.289C188.839 413.076 189.019 414.643 189.218 415.354C190.249 419.113 195.751 419.632 198.997 419.987V426.095H166.961V419.987C169.712 419.731 174.304 419.393 175.942 416.887C176.915 415.401 176.862 413.693 177.166 412.003V366.633L167.87 363.801V359.949L168.325 359.529L186.17 354.949L188.804 354.82V367.618H188.798Z" fill="white"/>
<path d="M125.528 353.16C169.598 351.225 171.218 422.226 129.485 427.512C81.2888 433.608 79.1791 355.194 125.528 353.16ZM124.357 361.296C103.027 361.639 102.205 395.732 110.102 409.41C117.62 422.43 135.278 423.729 142.534 409.702C150.337 394.608 146.776 360.934 124.357 361.29V361.296Z" fill="white"/>
<path d="M79.5715 378.383H72.0012C71.0337 370.172 65.3166 362.963 56.9303 361.581C29.9706 357.152 24.8887 400.611 44.348 412.54C55.1178 419.143 68.5103 416.241 76.8033 407.184C77.4385 406.491 79.4433 403.454 79.8571 403.233C80.469 402.901 82.3573 404.422 82.7244 405.046C78.3069 417.669 68.8425 427.028 54.9547 427.838C14.5676 430.193 9.4449 368.487 42.7919 355.468C54.605 350.858 70.4218 353.23 79.5715 362.234V378.377V378.383Z" fill="white"/>
</g>
<defs>
<linearGradient id="paint0_linear_132_4113" x1="195.181" y1="306.299" x2="483.065" y2="199.862" gradientUnits="userSpaceOnUse">
<stop stop-color="#3C39EE"/>
<stop offset="0.359779" stop-color="#468AFC"/>
<stop offset="0.745188" stop-color="#0DA7CD"/>
<stop offset="1" stop-color="#49C5F4"/>
</linearGradient>
<clipPath id="clip0_132_4113">
<rect width="255.276" height="255.276" fill="white" transform="translate(170.477 26.3184)"/>
</clipPath>
<clipPath id="clip1_132_4113">
<rect width="554.801" height="98.3277" fill="white" transform="translate(20.8438 353.072)"/>
</clipPath>
</defs>
</svg>
