<svg width="279" height="279" viewBox="0 0 279 279" fill="none" xmlns="http://www.w3.org/2000/svg">
<g clip-path="url(#clip0_135_2758)">
<path d="M279.294 140.378C279.294 207.408 220.373 261.747 147.69 261.747C75.0063 261.747 16.085 207.408 16.085 140.378C16.085 73.3481 75.0063 19.0095 147.69 19.0095C220.373 19.0095 279.294 73.3481 279.294 140.378Z" fill="white"/>
<path d="M139.502 0C62.455 0 0 62.455 0 139.502C0 216.549 62.455 279.004 139.502 279.004C216.549 279.004 279.004 216.549 279.004 139.502C279.004 62.455 216.545 0 139.502 0ZM230.04 144.266L165.667 150.339L206.889 200.152L200.152 206.889L150.339 165.667L144.266 230.04H134.738L129.061 169.887L56.8425 229.652L49.3523 222.162L109.117 149.943L48.964 144.266V134.738L113.337 128.665L72.1149 78.8524L78.8524 72.1149L128.665 113.337L134.738 48.964H144.266L149.943 109.117L222.162 49.3523L229.652 56.8425L169.887 129.061L230.04 134.738V144.266Z" fill="url(#paint0_linear_135_2758)"/>
</g>
<defs>
<linearGradient id="paint0_linear_135_2758" x1="27.0281" y1="306" x2="341.915" y2="189.459" gradientUnits="userSpaceOnUse">
<stop stop-color="#3C39EE"/>
<stop offset="0.359779" stop-color="#468AFC"/>
<stop offset="0.745188" stop-color="#0DA7CD"/>
<stop offset="1" stop-color="#49C5F4"/>
</linearGradient>
<clipPath id="clip0_135_2758">
<rect width="279" height="279" fill="white"/>
</clipPath>
</defs>
</svg>
