<svg viewBox="0 0 142 103" xmlns="http://www.w3.org/2000/svg"><path d="M4.276 71.401s39.466 28.214 41.865 29.62c2.317 1.407 5.709 1.738 8.687.579 2.979-1.158 5.213-3.806 5.875-6.453.744-2.648 9.763-50.304 9.763-50.304.082-.662.33-2.565-.662-4.385-1.407-2.482-4.55-3.806-7.364-2.978a6.547 6.547 0 0 0-3.723 2.895c-.496.91-1.407 2.4-3.061 3.724a13.514 13.514 0 0 1-3.062 1.82c-5.047 2.068-10.673.33-13.9-3.806-1.985-2.565-5.543-3.558-8.687-2.317-3.144 1.241-4.964 4.468-4.716 7.695.58 5.13-2.316 10.259-7.446 12.327a12.15 12.15 0 0 1-8.19.249c-.58-.166-2.648-.662-4.717.496-2.565 1.324-3.888 4.468-3.226 7.28.496 1.904 1.985 3.145 2.564 3.558ZM70.052 9.597s14.065 46.498 15.058 48.98c.993 2.565 3.475 4.882 6.536 5.792 3.061.91 6.454.165 8.605-1.49 2.151-1.654 38.472-33.838 38.472-33.838.496-.414 1.82-1.82 2.151-3.89.414-2.812-1.324-5.79-3.971-6.866-2.151-.828-4.137-.248-4.716 0-.91.413-2.565.993-4.633 1.075-1.655.083-2.896-.248-3.558-.413-5.212-1.49-8.687-6.288-8.687-11.5-.083-3.227-2.234-6.206-5.461-7.116a7.61 7.61 0 0 0-8.439 3.227c-2.73 4.467-8.108 6.701-13.403 5.212-2.813-.827-5.13-2.565-6.62-4.799-.413-.496-1.737-2.15-4.053-2.564C74.52.91 71.458 2.565 70.3 5.13c-.91 1.985-.414 3.806-.248 4.467Z" fill="#FF9538"/></svg>