<svg width="147" height="140" viewBox="0 0 147 140" fill="none" xmlns="http://www.w3.org/2000/svg">
<path fill-rule="evenodd" clip-rule="evenodd" d="M134.81 60.1001L118.34 69.5901L134.81 79.0001C135.795 79.5694 136.658 80.3271 137.35 81.2299C138.042 82.1328 138.55 83.1631 138.844 84.2621C139.138 85.3611 139.212 86.5072 139.063 87.635C138.914 88.7628 138.544 89.8502 137.975 90.8351C137.406 91.82 136.648 92.6832 135.745 93.3752C134.842 94.0673 133.812 94.5748 132.713 94.8687C131.614 95.1626 130.468 95.2372 129.34 95.0881C128.212 94.9391 127.125 94.5694 126.14 94.0001L96.6301 77.0001C95.2776 76.2176 94.1615 75.0846 93.3994 73.7205C92.6373 72.3565 92.2575 70.812 92.3001 69.2501C92.3232 68.5734 92.4273 67.902 92.6101 67.2501C93.2142 65.0639 94.6499 63.2011 96.6101 62.0601L126.12 45.1201C127.109 44.5484 128.202 44.1775 129.334 44.0284C130.467 43.8794 131.618 43.9552 132.722 44.2515C133.825 44.5478 134.859 45.0587 135.765 45.7552C136.671 46.4516 137.43 47.3198 138 48.3101C138.572 49.2918 138.944 50.3773 139.093 51.5038C139.243 52.6302 139.167 53.7751 138.87 54.872C138.573 55.9688 138.061 56.9958 137.364 57.8933C136.668 58.7908 135.799 59.5409 134.81 60.1001ZM119.22 106.1L89.7201 89.1301C88.4003 88.3727 86.9052 87.9738 85.3835 87.9731C83.8618 87.9725 82.3664 88.37 81.0459 89.1263C79.7254 89.8826 78.6258 90.9713 77.8564 92.2842C77.087 93.5971 76.6746 95.0884 76.6601 96.6101V130.51C76.7366 132.762 77.6851 134.897 79.3055 136.463C80.9259 138.03 83.0914 138.905 85.3451 138.905C87.5988 138.905 89.7644 138.03 91.3848 136.463C93.0052 134.897 93.9537 132.762 94.0301 130.51V111.51L110.54 121C111.525 121.57 112.613 121.94 113.741 122.09C114.869 122.24 116.015 122.166 117.115 121.872C118.214 121.579 119.245 121.072 120.148 120.38C121.052 119.688 121.81 118.825 122.38 117.84C122.95 116.855 123.32 115.768 123.47 114.64C123.62 113.512 123.546 112.365 123.252 111.266C122.959 110.166 122.452 109.135 121.76 108.232C121.068 107.328 120.205 106.57 119.22 106V106.1ZM85.2201 72.9401L72.9201 85.0901C72.4993 85.4813 71.954 85.7115 71.3801 85.7401H67.7701C67.1976 85.7057 66.6541 85.4763 66.2301 85.0901L54.0001 72.9001C53.6175 72.4826 53.3914 71.9455 53.3601 71.3801V67.7801C53.3931 67.2121 53.6189 66.6724 54.0001 66.2501L66.2301 54.0601C66.6551 53.6768 67.1987 53.4509 67.7701 53.4201H71.3801C71.9525 53.4468 72.4974 53.6732 72.9201 54.0601L85.1801 66.2501C85.5584 66.6734 85.7807 67.2132 85.8101 67.7801V71.3801C85.7824 71.9444 85.5598 72.4817 85.1801 72.9001L85.2201 72.9401ZM75.4201 69.5601C75.3729 68.9771 75.1297 68.4273 74.7301 68.0001L71.1801 64.4901C70.7547 64.1075 70.2114 63.8817 69.6401 63.8501H69.5101C68.9414 63.8799 68.4007 64.1061 67.9801 64.4901L64.4301 68.0001C64.049 68.4295 63.8267 68.9766 63.8001 69.5501V69.6801C63.8253 70.245 64.0483 70.783 64.4301 71.2001L68.0001 74.7001C68.4216 75.0827 68.9618 75.3087 69.5301 75.3401H69.6601C70.2314 75.3085 70.7747 75.0827 71.2001 74.7001L74.7501 71.1701C75.1336 70.7522 75.3629 70.216 75.4001 69.6501L75.4201 69.5601ZM19.9301 33.0801L49.4401 50.0001C50.7614 50.7572 52.2578 51.1556 53.7807 51.1556C55.3035 51.1555 56.7999 50.7571 58.1212 50C59.4425 49.2428 60.5427 48.1531 61.3126 46.8392C62.0825 45.5253 62.4954 44.0329 62.5101 42.5101V8.6401C62.4337 6.3877 61.4852 4.25309 59.8648 2.68675C58.2444 1.1204 56.0788 0.244844 53.8251 0.244844C51.5714 0.244844 49.4059 1.1204 47.7855 2.68675C46.1651 4.25309 45.2166 6.3877 45.1401 8.6401V27.6401L28.6101 18.1401C27.6252 17.5702 26.5377 17.1998 25.4096 17.0502C24.2816 16.9005 23.1351 16.9745 22.0357 17.268C20.9362 17.5614 19.9053 18.0685 19.0019 18.7603C18.0984 19.4522 17.3401 20.3152 16.7701 21.3001C16.2002 22.285 15.8298 23.3725 15.6802 24.5006C15.5305 25.6286 15.6045 26.7751 15.898 27.8746C16.1914 28.974 16.6985 30.0049 17.3904 30.9083C18.0822 31.8118 18.9452 32.5702 19.9301 33.1401V33.0801ZM84.6901 51.1601C86.4327 51.2979 88.1761 50.9039 89.6901 50.0301L119.19 33.0301C120.175 32.4602 121.038 31.7018 121.73 30.7983C122.422 29.8949 122.929 28.864 123.222 27.7646C123.516 26.6651 123.59 25.5186 123.44 24.3906C123.29 23.2625 122.92 22.175 122.35 21.1901C121.78 20.2052 121.022 19.3422 120.118 18.6503C119.215 17.9585 118.184 17.4514 117.085 17.158C114.864 16.5653 112.499 16.8791 110.51 18.0301L94.0001 27.6101V8.6101C93.9237 6.3577 92.9752 4.22309 91.3548 2.65675C89.7344 1.0904 87.5688 0.214844 85.3151 0.214844C83.0614 0.214844 80.8959 1.0904 79.2755 2.65675C77.6551 4.22309 76.7066 6.3577 76.6301 8.6101V42.5101C76.6274 44.7049 77.4581 46.8188 78.9543 48.4246C80.4505 50.0303 82.5006 51.008 84.6901 51.1601ZM54.4801 88.0001C52.7372 87.8585 50.9927 88.2527 49.4801 89.1301L19.9301 106.06C17.941 107.211 16.4906 109.105 15.898 111.326C15.3054 113.546 15.6191 115.911 16.7701 117.9C17.9212 119.889 19.8152 121.34 22.0357 121.932C24.2561 122.525 26.621 122.211 28.6101 121.06L45.1401 111.57V130.57C45.2166 132.822 46.1651 134.957 47.7855 136.523C49.4059 138.09 51.5714 138.965 53.8251 138.965C56.0788 138.965 58.2444 138.09 59.8648 136.523C61.4852 134.957 62.4337 132.822 62.5101 130.57V96.6101C62.5056 94.4264 61.6754 92.3251 60.186 90.7282C58.6966 89.1312 56.6582 88.1566 54.4801 88.0001ZM46.4801 72.1301C47.0498 70.2568 46.9639 68.2454 46.2368 66.4274C45.5096 64.6095 44.1845 63.0937 42.4801 62.1301L13.0001 45.1401C11.0092 43.9997 8.648 43.693 6.43177 44.2869C4.21553 44.8808 2.3241 46.327 1.17012 48.3101C0.598813 49.2915 0.227777 50.3765 0.0784731 51.5022C-0.0708307 52.628 0.00456092 53.7721 0.300287 54.8686C0.596013 55.965 1.1062 56.9919 1.80134 57.8899C2.49649 58.7878 3.36278 59.5391 4.35012 60.1001L20.8201 69.5901L4.35012 79.0001C3.3652 79.5681 2.5018 80.3245 1.80921 81.2261C1.11662 82.1277 0.608405 83.157 0.313579 84.255C0.018753 85.3531 -0.0569085 86.4985 0.0909143 87.6258C0.238737 88.753 0.60715 89.8402 1.17512 90.8251C1.74308 91.81 2.49948 92.6734 3.40113 93.366C4.30277 94.0586 5.332 94.5668 6.43005 94.8616C7.52811 95.1565 8.67348 95.2321 9.80077 95.0843C10.9281 94.9365 12.0152 94.5681 13.0001 94.0001L42.4801 77.0001C44.3785 75.9402 45.8044 74.1999 46.4701 72.1301H46.4801Z" fill="#29B5E8"/>
</svg>
